<svg version="1" xmlns="http://www.w3.org/2000/svg" width="162.667" height="162.667" viewBox="0 0 122.000000 122.000000"><path d="M9.2 12.8c-.7.2 2.2 2.4 6.4 4.8C28 24.7 41.4 36.1 50.4 47.2c3.6 4.6 3.7 4.7 2.2 7.7-2.4 4.5-2 5.4 1.6 3.5 2.6-1.3 3.2-1.4 3.9-.3.4.8 1.5 2.3 2.3 3.4 1.5 1.9 1.5 1.8 1.7-2 .1-2.2.1-4.3 0-4.8-.2-1.6 21-9.4 30.4-11.2 6.7-1.2 16.3-2.3 22-2.4 3.3-.1 6.1-.4 6.3-.5.1-.2-1.9-1.7-4.5-3.4-7.7-4.9-14.6-6.7-24.8-6.6-10.8.2-18 2.6-25.6 8.6-2.8 2.2-5.2 3.8-5.3 3.6-.1-.1-1.5-3-3.1-6.3-5.2-10.8-16.2-19.9-28-23-5.4-1.4-17.1-1.9-20.3-.7zM80.5 71.5c-6.6 1.5-10.6 3.7-15.4 8.4-4.6 4.6-7.8 10.3-8.7 16l-.6 4-2.5-4.9c-6.2-12.5-20.2-19.1-35-16.6-3.9.7-6 2.5-3 2.7.6 0 3.5 1.1 6.2 2.4 3.3 1.5 4.1 2.3 2.5 2.1-5.4-.6-17 3.3-19.9 6.8-1.1 1.3-.9 1.5 1.8 1.1 1.7-.2 3.1.1 3.1.6s-.3.9-.7.9c-.5 0-2.4 1.4-4.3 3.1l-3.5 3 3.8-.3 3.7-.4-3.7 3.8c-2 2.1-3.5 4-3.2 4.2.2.2 4.7-.4 9.9-1.5 11.2-2.2 26.6-1.9 37.5.6 8.7 2.1 7.7 2.1 16 0 9.2-2.2 25.1-2.7 34.5-1 4.1.8 9.1 1.7 11 2l3.5.6-5.6-5.3-5.6-5.4 5.1.3 5.1.3-3-2.5c-1.6-1.4-4.2-3.1-5.7-3.8-3.8-1.6-3.5-2.7.6-2.7 5.4 0 5.1-1.5-.7-4.1-7.3-3.3-21.1-3.3-27.7 0l-4.5 2.2 5.6-5.3c3-3 7.7-6.8 10.4-8.6 2.7-1.8 4.2-3.3 3.4-3.3-.8-.1-2.3-.3-3.4-.4-1.1-.1-4.2.3-7 1z"/></svg>